<svg width="96" height="96" viewBox="0 0 96 96" fill="none" xmlns="http://www.w3.org/2000/svg">
<circle cx="48" cy="48" r="48" fill="url(#paint0_linear_2783_19)"/>
<mask id="mask0_2783_19" style="mask-type:luminance" maskUnits="userSpaceOnUse" x="23" y="14" width="50" height="68">
<path d="M23.0842 81.0569H73.0001V14.9431H23.0842V81.0569Z" fill="white"/>
</mask>
<g mask="url(#mask0_2783_19)">
<mask id="mask1_2783_19" style="mask-type:luminance" maskUnits="userSpaceOnUse" x="23" y="14" width="50" height="68">
<path fill-rule="evenodd" clip-rule="evenodd" d="M49.7432 75.1247L69.9079 54.991C74.0306 50.8753 74.0306 44.1615 69.9079 40.0457L50.7091 20.8761L47.9363 23.6438L44.8673 26.7084L42.6394 28.9329L41.4583 27.7535L40.4115 26.7084L39.8666 26.1644L36.8467 29.18L36.9957 29.328L39.8176 32.1456L38.2826 33.6779L48.402 43.7818C50.4629 45.8401 50.4629 49.1966 48.402 51.2549L37.3176 62.3221L38.8525 63.8544L36.0306 66.672L35.8817 66.82L38.9016 69.8348L39.4465 69.2916L40.4933 68.2465L41.6736 67.0671L43.9015 69.2916L46.9713 72.3562L49.7432 75.1247ZM37.7627 16.0071L39.1986 17.4405L37.7627 18.8738L36.3276 17.4405L37.7627 16.0071ZM31.277 20.1591L32.3668 21.2463L31.2779 22.3336L30.188 21.2463L31.277 20.1591ZM32.7869 16.5753L34.1488 17.9346L32.7878 19.2939L31.4259 17.9346L32.7869 16.5753ZM27.54 19.1949L28.5541 20.2081L27.54 21.2214L26.5251 20.2081L27.54 19.1949ZM24.4702 20.9743L24.8912 21.3944L24.4702 21.8145L24.0492 21.3944L24.4702 20.9743ZM27.441 22.6056L28.0591 23.2237L27.441 23.8418L26.8221 23.2237L27.441 22.6056ZM30.4359 25.2502L31.3519 26.1644L30.4359 27.0795L29.52 26.1644L30.4359 25.2502ZM32.8369 23.0997L33.8269 24.0889L32.8369 25.0771L31.8469 24.0889L32.8369 23.0997ZM35.7328 29.6991L37.3417 31.3054L35.7328 32.9118L34.1238 31.3054L35.7328 29.6991ZM33.7528 27.1776L34.8418 28.2657L33.7528 29.353L32.6638 28.2657L33.7528 27.1776ZM36.4017 23.8418L38.2086 25.6462L36.4017 27.4496L34.5939 25.6453L36.4017 23.8418ZM35.1388 19.541L36.6737 21.0733L35.1388 22.6056L33.6039 21.0733L35.1388 19.541ZM38.0106 21.0733L39.2976 22.3585L38.0106 23.6438L36.7236 22.3585L38.0106 21.0733ZM40.9315 23.4957L42.5404 25.1021L40.9315 26.7084L39.3226 25.1021L40.9315 23.4957ZM41.5746 18.2066L43.7035 20.3321L41.5746 22.4575L39.4457 20.3321L41.5746 18.2066ZM43.2584 14.944L45.4854 17.1684L43.2584 19.3929L41.0305 17.1684L43.2584 14.944ZM46.2533 18.3297L47.6892 19.7631L46.2533 21.1972L44.8174 19.7639L46.2533 18.3297ZM42.0945 23.9399L45.1643 20.8761L47.9363 23.6438L51.0061 26.7084L47.9363 29.7731L44.8673 26.7084L43.6862 25.5299L42.6394 24.484L42.0945 23.9399ZM36.7977 79.9929L38.2336 78.5604L36.7977 77.1262L35.3618 78.5604L36.7977 79.9929ZM30.312 75.841L31.401 74.7537L30.312 73.6664L29.223 74.7537L30.312 75.841ZM31.8219 79.4247L33.1838 78.0654L31.8219 76.707L30.4609 78.0654L31.8219 79.4247ZM26.5741 76.8051L27.5891 75.7919L26.5741 74.7787L25.5592 75.7919L26.5741 76.8051ZM23.5052 75.0257L23.9261 74.6056L23.5052 74.1855L23.0842 74.6056L23.5052 75.0257ZM26.4751 73.3944L27.0941 72.7763L26.4751 72.1582L25.857 72.7763L26.4751 73.3944ZM29.4709 70.7499L30.3869 69.8356L29.4709 68.9205L28.555 69.8356L29.4709 70.7499ZM31.8718 72.9011L32.8618 71.912L31.8718 70.9229L30.881 71.912L31.8718 72.9011ZM34.7678 66.301L36.3767 64.6946L34.7678 63.0882L33.1588 64.6946L34.7678 66.301ZM32.7878 68.8224L33.8768 67.7351L32.7878 66.647L31.698 67.7351L32.7878 68.8224ZM35.4358 72.1591L37.2436 70.3547L35.4358 68.5504L33.6289 70.3547L35.4358 72.1591ZM34.1738 76.4591L35.7087 74.9267L34.1738 73.3944L32.6389 74.9267L34.1738 76.4591ZM37.0447 74.9267L38.3326 73.6423L37.0447 72.3562L35.7578 73.6423L37.0447 74.9267ZM39.9656 72.5051L41.5746 70.8979L39.9656 69.2916L38.3567 70.8979L39.9656 72.5051ZM40.6095 77.7942L42.7384 75.6679L40.6095 73.5425L38.4806 75.6679L40.6095 77.7942ZM42.2925 81.056L44.5204 78.8316L42.2925 76.6071L40.0646 78.8316L42.2925 81.056ZM45.2883 77.6703L46.7233 76.237L45.2874 74.8036L43.8524 76.237L45.2883 77.6703ZM41.1295 72.0601L44.1985 75.1247L46.9713 72.3562L50.0411 69.2916L46.9713 66.2269L43.9015 69.2916L42.7212 70.4709L41.6744 71.516L41.1295 72.0601Z" fill="white"/>
</mask>
<g mask="url(#mask1_2783_19)">
<path d="M23.0842 81.056V14.944H73.0001V81.056H23.0842Z" fill="white"/>
</g>
</g>
<defs>
<linearGradient id="paint0_linear_2783_19" x1="-29.6" y1="167.2" x2="149.373" y2="158.828" gradientUnits="userSpaceOnUse">
<stop stop-color="#0098D9"/>
<stop offset="1" stop-color="#33CC33"/>
</linearGradient>
</defs>
</svg>
